<?xml version="1.0" encoding="utf-8"?>
<!-- Generator: Adobe Illustrator 19.1.0, SVG Export Plug-In . SVG Version: 6.00 Build 0)  -->
<svg version="1.1" id="Layer_1" xmlns="http://www.w3.org/2000/svg" xmlns:xlink="http://www.w3.org/1999/xlink" x="0px" y="0px"
	 viewBox="0 0 1000 1000" style="enable-background:new 0 0 1000 1000;" xml:space="preserve">
<style type="text/css">
	.st0{fill:#A79E40;}
	.st1{fill:#F4F5CC;}
	.st2{fill:#267227;}
</style>
<g>
	<g>
		<path class="st0" d="M372.1,152.5c41.5-7.7,83.6-11.9,125.8-11.5c56.9-0.7,113.9,6.4,169.1,20.1c77.7,19.7,152.7,53.8,214.5,105.2
			c44.6,37.3,82.1,84.6,102.2,139.6c10.5,28.6,16.1,59,16.1,89.4v1.3c0.1,47.6-13.9,94.7-38,135.6c-16.7,28.5-37.9,54.3-61.9,77
			c-31.5,30-68,54.4-106.5,74.4C715.5,823.7,628.5,845,541,850.1c-22,1.2-44,0.9-66,0.7c-85.1-3-170.2-21.3-247.7-57
			c-33.6-15.6-65.7-34.5-95.2-57.1c-31.2-24.1-59.5-52.5-81.8-85.1C19.3,607,0.2,553.3,0,498.6v-4.1c0.1-27.8,4.8-55.5,13.8-81.8
			c11.1-32.9,28.6-63.5,50.1-90.7c21.5-27,46.9-50.9,74.6-71.4C207.1,199.9,288.6,168.3,372.1,152.5z M401.9,195.2
			c-46.2,7-91.6,19.2-134.9,36.9c-42.4,17.5-82.7,40.6-118,70c-30.6,25.7-57.5,56.3-76.1,91.9C56.6,425,47,459.8,47.2,495
			c-0.3,23.4,3.7,46.7,11.1,68.8c14.3,42.7,41.4,80.2,73.8,111.1c48.5,45.7,108.6,77.7,171.5,98.6c75.9,25,156.7,34.3,236.3,29.5
			c67.5-4.2,134.7-18.5,197.2-44.9c5.8-2.3,11.3-5.5,17.3-7.1c-11.4,6.2-23.6,10.5-35.6,15.3c-63.5,23.9-131.1,36.2-198.8,38.2
			c-19.7,0-39.4,0.6-59-0.9c-18.8-0.9-37.4-2.9-56-5.6c-76.8-11.3-152.3-36.3-217.8-78.3c-29.9-19.3-57.6-42.3-80.8-69.3
			c-22.1-25.6-39.8-55.2-50.6-87.4c-14,0-28,0-42.1,0c10.1,38.6,30.1,74.2,55,105.2c43.2,53.4,101.2,93.3,163.4,121.6
			c74.7,33.7,156.2,51.1,237.9,54.7c16,0.2,32,1.4,48.1,0.2c11.6,0,23.2-0.7,34.9-1.6c59.1-4.5,117.8-16.4,173.6-36.7
			c44.6-16.2,87.3-37.7,126-65.2c30-21.5,57.5-46.6,80.4-75.6c24-30.3,42.8-65.1,53-102.5c-14.1,0-28.2-0.1-42.3,0
			c-9.2,27.5-23.5,53.1-41.3,76c-30.5,39.1-70.1,70.3-113.1,94.6c-11.2,6.1-22.4,12.6-34.4,17.2c10.6-6.4,22.2-11.1,32.9-17.5
			c24.2-13.7,47.3-29.4,68.2-47.7c37.9-32.8,69.9-74,85.9-122c13.5-39.7,14.8-83.5,3.5-124c-8.5-30.6-23.5-59.2-42.8-84.3
			c-22.5-29.6-50.5-54.7-81-75.8c-62.2-42.6-134.6-69-208.6-82.1c-32.3-5.6-65-9.1-97.8-9.4c-9.7-0.6-19.4-0.6-29,0
			C457.9,188.4,429.8,190.9,401.9,195.2z"/>
	</g>
</g>
<g>
	<g>
		<path class="st1" d="M401.9,195.2c27.8-4.2,55.9-6.8,84.1-7.1c9.7-0.6,19.4-0.5,29,0c32.8,0.4,65.5,3.9,97.8,9.4
			c74,13.2,146.3,39.5,208.6,82.1c30.5,21.1,58.5,46.2,81,75.8c19.3,25.1,34.4,53.7,42.8,84.3c11.3,40.4,10,84.2-3.5,124
			c-294.5,0-589,0-883.5,0c-7.4-22.1-11.4-45.5-11.1-68.8c-0.1-35.2,9.5-70,25.8-101.1c18.6-35.5,45.5-66.2,76.1-91.9
			c35.3-29.4,75.6-52.4,118-70C310.3,214.3,355.8,202.1,401.9,195.2z M488.4,199.6c-80.3,35.1-160.6,70.2-240.9,105.3
			c1.3,3.2,2.6,6.4,4,9.6c80.9-35.5,162.1-70.4,243.1-105.8c1.3-0.5,2.8-1.4,4.2-0.6C582.1,244,665.3,280.2,748.6,316
			c1.3-3.1,2.6-6.2,4-9.3c-84.8-37.1-169.8-73.9-254.6-110.9C494.6,196.6,491.6,198.4,488.4,199.6z M495.8,214.9
			c-74.7,32.7-149.7,65-224.3,97.8c1.3,2.7,2.5,5.4,3.5,8.2c73.7-31.9,147.4-64,221.1-95.9c1.5-0.9,3,0.1,4.4,0.6
			c73.3,31.8,146.7,63.5,220,95.3c1.2-2.7,2.3-5.5,3.6-8.2c-13.9-6.6-28.2-12.4-42.3-18.6c-59.7-26-119.5-51.8-179.2-77.9
			C500.3,215.5,498.1,213.5,495.8,214.9z M278.9,325.1c1.4,3.8,3.6,7.1,5.5,10.6c142.5-0.2,285.1-0.3,427.6-0.6
			c1.5-3.3,3.2-6.5,4.5-9.9c-34-13.7-67.8-28.1-101.8-42c-39-16.2-78-32.2-117-48.6C424.8,264.7,351.9,295.2,278.9,325.1z
			 M269.2,345.6c0,4.6,0,9.1-0.1,13.6c152.4,0,304.7,0,457.1,0c0-4.5,0-9.1,0-13.6C573.9,345.6,421.5,345.6,269.2,345.6z
			 M282.3,371.2c0.1,57.2,0,114.4,0,171.6c8.3,0,16.6,0,24.9,0c0-57.2,0-114.5,0-171.7C299,371.2,290.6,371.1,282.3,371.2z
			 M319.6,371.3c0.1,47.6,0,95.3,0,142.9c12.3,0,24.7,0,37,0c0-47.7,0-95.4,0-143.1C344.3,371.3,332,371.1,319.6,371.3z
			 M369.1,371.2c0.1,57.2,0,114.4,0,171.6c5.8,0,11.6-0.1,17.5,0c0.1-57.2,0-114.5,0-171.7C380.8,371.2,375,371.2,369.1,371.2z
			 M397.8,371.1c0,47.7,0,95.4,0,143.1c12.3,0,24.6,0,36.9,0c0.1-47.7,0-95.4,0.1-143C422.4,371.1,410.1,371.3,397.8,371.1z
			 M476.6,371.3c0.2,47.6,0,95.3,0.1,142.9c12.3,0,24.6,0,37,0c0-47.7,0-95.4,0-143.1C501.3,371.3,488.9,371,476.6,371.3z
			 M527.2,371.2c0,57.2,0,114.5,0,171.7c5.8-0.1,11.6-0.1,17.4,0c0-57.2,0-114.5,0-171.7C538.9,371.2,533.1,371.2,527.2,371.2z
			 M556.3,371.2c0,47.7,0.1,95.3-0.1,143c12.3,0.1,24.7,0,37,0c0-47.6,0-95.3,0-142.9C581,371.1,568.7,371.3,556.3,371.2z
			 M604.4,371.2c0.1,57.2,0,114.4,0,171.6c5.8,0,11.7,0,17.5,0c0.2-57.2-0.2-114.4,0.2-171.6C616.1,371.2,610.2,371.2,604.4,371.2z
			 M635.3,371.2c0.1,47.7,0,95.3,0,143c12.3,0,24.6,0,37,0c0-47.7,0-95.4,0-143.1C659.9,371.3,647.6,371.1,635.3,371.2z
			 M685.6,371.2c0,57.2,0,114.4,0,171.6c9,0,18.1,0,27.2,0c0-57.2,0-114.4,0-171.7C703.7,371.2,694.7,371.2,685.6,371.2z
			 M445.7,371.2c0,57.2,0,114.4,0,171.5c5.9,0.1,11.8,0,17.7,0.1c0-57.2,0-114.4,0-171.7C457.5,371.2,451.6,371.1,445.7,371.2z
			 M319.7,542.8c12.4,0.1,24.7,0,37.1,0.1c0-6.1,0-12.2,0.1-18.3c-12.4,0-24.8,0-37.1,0C319.7,530.7,319.7,536.7,319.7,542.8z
			 M397.7,524.6c0,6.1,0,12.2,0,18.3c12.3-0.2,24.7,0,37-0.1c0-6.1,0-12.2,0-18.2C422.5,524.6,410.1,524.6,397.7,524.6z
			 M476.7,524.6c0,6.1,0,12.1,0,18.2c12.3,0.1,24.7,0,37,0.1c0-6.1,0-12.2,0.1-18.3C501.4,524.6,489,524.6,476.7,524.6z
			 M556.4,542.9c12.3-0.2,24.7,0,37.1-0.1c0-6.1,0-12.1,0-18.2c-12.4-0.1-24.7,0-37.1-0.1C556.3,530.7,556.3,536.8,556.4,542.9z
			 M635.3,542.8c12.3,0,24.7-0.1,37,0.1c0.1-6.1,0-12.2,0-18.3c-12.4,0-24.7,0-37.1,0C635.3,530.7,635.3,536.8,635.3,542.8z
			 M260.1,557.7c158.4-0.1,316.7,0.1,475.1-0.1c0-2.1,0-4.2,0.1-6.3c-1.1-0.2-2.2-0.4-3.3-0.5c-156.7,0-313.4,0-470.1,0
			C258.4,550.8,260.2,555.5,260.1,557.7z"/>
	</g>
	<path class="st1" d="M13.7,563.2c14,0,28,0,42.1,0c10.8,32.2,28.5,61.7,50.6,87.4c23.2,27.1,50.9,50,80.8,69.3
		c65.5,42.1,141,67,217.8,78.3c18.6,2.7,37.3,4.6,56,5.6c19.6,1.5,39.3,0.9,59,0.9c67.7-2.1,135.4-14.3,198.8-38.2
		c12-4.8,24.2-9.1,35.6-15.3l0.3-0.1c12-4.7,23.1-11.1,34.4-17.2c43-24.3,82.7-55.5,113.1-94.6c17.8-22.8,32.1-48.5,41.3-76
		c14.1-0.1,28.2-0.1,42.3,0c-10.2,37.4-29,72.2-53,102.5c-22.9,29-50.4,54.1-80.4,75.6c-38.7,27.5-81.4,49.1-126,65.2
		c-55.8,20.3-114.4,32.2-173.6,36.7c-11.6,0.9-23.2,1.6-34.9,1.6c-16,1.2-32,0-48.1-0.2c-81.7-3.6-163.2-21-237.9-54.7
		c-62.2-28.2-120.2-68.2-163.4-121.6C43.7,637.4,23.8,601.8,13.7,563.2z"/>
	<g>
		<path class="st1" d="M334.4,582.3c1.7,0,3.5,0,5.2,0c-0.1,12.7,0,25.4-0.1,38.1c-2.5,0-5,0-7.5-0.1c-2.6-6.7-5.8-13.3-11-18.3
			c-4.8-4.4-11.7-5-18-4.9c-9.8,0-19.6,0-29.4,0c0,15.8,0,31.6,0,47.4c16.6,0.2,33.7-1.5,49.6,4.2c13.6,5.3,24.2,18.5,25.8,33.1
			c1.2,10.2-0.2,21.3-6.5,29.7c-5,6.6-11.2,12.7-19.1,15.7c-9,3.6-18.9,4.5-28.5,4.4c-21,0-41.9,0-62.9,0c0-2.4,0-4.9,0-7.3
			c6.2-0.9,10.6-6.3,10.3-12.5c0.1-34.3,0-68.6,0.1-102.9c0-4-0.2-8.4-2.8-11.7c-1.9-2.5-5.1-3.2-7.9-4.1c0.2-2.4,0.3-4.8,0.4-7.2
			c27.9,0.1,55.8,0,83.8,0c4.4,0,8.8-0.1,13.1-0.7C331.3,585.3,332.8,583.6,334.4,582.3z M273.7,655.5c0,21.7-0.1,43.5,0,65.2
			c10.5-0.7,21.9,1.7,31.6-3.4c6.8-3.3,8.4-11.5,9.1-18.3c0.4-8.9,0.9-17.9-1.2-26.6c-1.9-8.3-9-15-17.4-16.5
			C288.5,655.1,281.1,655.8,273.7,655.5z"/>
	</g>
	<path class="st1" d="M533.3,582.4c3.7,0,7.6-0.6,11.1,1c4.6,1.9,9.7,2,14.6,1.9c28.3,0,56.7,0,85,0c5.8,0,11.8,0.4,17.3-2
		c3.3-1.5,7-0.8,10.4-0.9c-0.1,12.5,0,25,0,37.4c-2.5,0-5,0-7.5,0c-4-9.8-11.8-18.4-22-21.9c-7.9-2.2-16.1-1.3-24.1-1.5
		c0.2,39.2-0.1,78.4,0.2,117.7c-0.2,5.9,5.2,9.3,10.2,10.4c0,2.5,0,5,0,7.5c-17.3-0.1-34.6,0-51.9-0.1c0-2.4,0-4.8-0.1-7.2
		c3.4-1.8,8-2.6,9.5-6.7c1-3.2,0.6-6.6,0.7-9.9c0-37.2-0.1-74.4,0.1-111.6c-11.3,0.1-23.7-0.9-33.5,6c-6.3,3.9-10,10.6-12.6,17.3
		c-2.5,0.3-5,0.1-7.5,0.1C533.3,607.3,533.4,594.8,533.3,582.4z"/>
	<path class="st1" d="M367.3,586.1c17.3,0,34.6,0,51.9,0c0,2.4,0,4.8,0,7.2c-3.8,0.9-7.5,2.9-9.4,6.4c-1.4,2.9-1.1,6.2-1.2,9.3
		c0.1,14.1,0,28.2,0,42.3c24.2,0,48.4,0,72.6,0c0-15.1,0-30.2,0-45.3c0-3.5-1-7.3-3.6-9.8c-1.8-1.7-4.4-2.1-6.6-2.9
		c0.1-2.4,0.1-4.8,0.1-7.2c17.2,0,34.4,0,51.7,0c0,2.4,0,4.8,0.1,7.2c-2.8,0.9-5.8,1.6-7.8,3.9c-2.2,2.4-2.7,5.7-2.6,8.8
		c0.1,34,0.1,68,0.1,102c0.1,3.7-0.4,7.6,1.3,10.9c1.9,3.1,5.7,4.1,8.8,5.4c0,2.5,0.1,5,0.1,7.5c-17.2,0-34.5,0-51.7,0
		c0.1-2.5-0.9-5.2,0.2-7.5c2.6-1.4,5.7-2,7.7-4.2c2-2.2,2-5.4,2.2-8.1c0-16.5,0-33,0-49.6c-24.2-0.1-48.4,0-72.6,0
		c0,16.2,0,32.5,0,48.7c0,3.1,0.2,6.5,2.2,9c2,2.6,5.4,3.3,8.3,4.5c0,2.4,0,4.8,0,7.3c-17.3,0-34.6,0-51.9,0c0-2.5,0-5,0-7.4
		c3.1-1.4,6.7-2.5,8.7-5.5c1.8-3,1.4-6.5,1.5-9.8c0-34.3,0-68.7,0-103c0-2.8-0.3-5.9-2.3-8c-2-2.5-5-3.6-7.9-4.7
		C367.3,590.9,367.3,588.5,367.3,586.1z"/>
	<path class="st1" d="M682.2,586.1c20.1,0,40.3,0,60.4,0c0,2.4,0,4.8,0,7.1c-4.1,0-9.5,2-9.9,6.7c-0.1,4.9,3,9,5.3,13
		c9.5,15.5,18.9,31.1,28.3,46.7c0.2,1.4,2.2,1.7,2.6,0.3c5.9-14,11.9-28.1,17.8-42.2c2.1-5.5,5.7-11.2,4.6-17.3
		c-2.1-5.5-8.9-5.8-13.8-7c0-2.5,0-4.9,0.1-7.4c12.9,0.1,25.8,0,38.7,0c0,2.4,0,4.8,0,7.2c-2.9,1.5-6.1,2.9-8.2,5.6
		c-4.3,5.4-6.3,12-9,18.2c-7,16.6-14.1,33.2-21.1,49.8c-5,11.4-9.5,23-14.8,34.3c-4.8,9.6-11,18.8-19.4,25.6c-9.5,7-22,7.9-33.3,6.4
		c-5.8-1-11.4-4-15.2-8.5c-6.1-7.4-4.5-19.6,3-25.4c7-4.2,17.7-3.4,22.5,3.8c3.7,4.1,1.9,11.1,6.9,14.2c5,1.5,10.9-0.2,14.7-3.8
		c4.7-4.5,7.7-10.5,10.1-16.4c-17.4-28.5-34.6-57.1-51.9-85.7c-2.4-3.9-4.5-8.1-7.7-11.4c-3-3.1-6.9-5.2-10.9-6.7
		C682.2,590.9,682.2,588.5,682.2,586.1z"/>
</g>
<g>
	<path class="st2" d="M488.4,199.6c3.2-1.2,6.2-3.1,9.5-3.9c84.9,37,169.8,73.8,254.6,110.9c-1.4,3.1-2.7,6.2-4,9.3
		c-83.3-35.8-166.5-72-249.8-107.9c-1.4-0.8-2.9,0.2-4.2,0.6c-81,35.3-162.2,70.3-243.1,105.8c-1.4-3.2-2.7-6.4-4-9.6
		C327.8,269.8,408.1,234.7,488.4,199.6z"/>
	<path class="st2" d="M495.8,214.9c2.3-1.4,4.6,0.6,6.7,1.4c59.7,26,119.5,51.9,179.2,77.9c14.1,6.2,28.4,12,42.3,18.6
		c-1.3,2.7-2.5,5.4-3.6,8.2c-73.3-31.9-146.7-63.5-220-95.3c-1.4-0.5-2.9-1.5-4.4-0.6c-73.7,31.9-147.4,64-221.1,95.9
		c-1-2.8-2.2-5.6-3.5-8.2C346.1,279.8,421,247.6,495.8,214.9z"/>
	<path class="st2" d="M278.9,325.1c73.1-29.9,145.9-60.4,218.9-90.5c38.9,16.3,78,32.3,117,48.6c33.9,13.9,67.7,28.3,101.8,42
		c-1.3,3.4-3,6.6-4.5,9.9c-142.5,0.2-285.1,0.4-427.6,0.6C282.5,332.2,280.2,328.9,278.9,325.1z"/>
	<path class="st2" d="M269.2,345.6c152.3,0,304.7,0,457,0c0,4.5,0,9.1,0,13.6c-152.4,0-304.7,0-457.1,0
		C269.2,354.7,269.2,350.1,269.2,345.6z"/>
	<path class="st2" d="M282.3,371.2c8.3-0.1,16.6,0,25,0c0,57.2,0,114.5,0,171.7c-8.3-0.1-16.6,0-24.9,0
		C282.4,485.6,282.4,428.4,282.3,371.2z"/>
	<path class="st2" d="M319.6,371.3c12.3-0.2,24.7,0,37-0.1c0,47.7,0,95.4,0,143.1c-12.3,0-24.7,0-37,0
		C319.7,466.5,319.7,418.9,319.6,371.3z"/>
	<path class="st2" d="M369.1,371.2c5.8,0,11.7,0,17.5,0c0,57.2,0,114.5,0,171.7c-5.8-0.1-11.6,0-17.5,0
		C369.2,485.6,369.2,428.4,369.1,371.2z"/>
	<path class="st2" d="M397.8,371.1c12.3,0.1,24.6,0,36.9,0.1c-0.1,47.7,0,95.4-0.1,143c-12.3-0.1-24.6,0-36.9,0
		C397.8,466.5,397.7,418.8,397.8,371.1z"/>
	<path class="st2" d="M476.6,371.3c12.3-0.3,24.7,0,37-0.2c0,47.7,0,95.4,0,143.1c-12.3,0-24.7,0-37,0
		C476.6,466.6,476.8,418.9,476.6,371.3z"/>
	<path class="st2" d="M527.2,371.2c5.8,0,11.7,0,17.5,0c0,57.2,0,114.5,0,171.7c-5.8,0-11.6-0.1-17.4,0
		C527.2,485.6,527.3,428.4,527.2,371.2z"/>
	<path class="st2" d="M556.3,371.2c12.3,0.1,24.6-0.1,37,0.1c-0.1,47.6,0,95.3,0,142.9c-12.3,0-24.7,0.1-37,0
		C556.4,466.5,556.3,418.8,556.3,371.2z"/>
	<path class="st2" d="M604.4,371.2c5.9,0,11.8,0,17.7,0c-0.3,57.2,0,114.4-0.2,171.6c-5.8,0-11.7,0-17.5,0
		C604.4,485.6,604.4,428.4,604.4,371.2z"/>
	<path class="st2" d="M635.3,371.2c12.3-0.1,24.6,0.1,37-0.1c0,47.7,0,95.4,0,143.1c-12.3,0-24.6,0-37,0
		C635.3,466.5,635.3,418.9,635.3,371.2z"/>
	<path class="st2" d="M685.6,371.2c9.1,0,18.1,0,27.2,0c0,57.2,0,114.5,0,171.7c-9.1-0.1-18.1,0-27.2,0
		C685.6,485.6,685.6,428.4,685.6,371.2z"/>
	<path class="st2" d="M445.7,371.2c5.9-0.1,11.8,0,17.8-0.1c0,57.2,0,114.4,0,171.7c-5.9,0-11.8,0-17.7-0.1
		C445.7,485.6,445.8,428.4,445.7,371.2z"/>
	<path class="st2" d="M319.7,542.8c0-6.1,0-12.1,0-18.2c12.4,0,24.8,0,37.1,0c-0.1,6.1,0,12.2-0.1,18.3
		C344.4,542.8,332,542.9,319.7,542.8z"/>
	<path class="st2" d="M397.7,524.6c12.4,0.1,24.7,0,37.1,0c-0.1,6.1,0,12.2,0,18.2c-12.4,0-24.7-0.1-37,0.1
		C397.7,536.8,397.8,530.7,397.7,524.6z"/>
	<path class="st2" d="M476.7,524.6c12.4,0,24.7,0,37.1,0c-0.1,6.1,0,12.2-0.1,18.3c-12.3-0.1-24.7,0-37-0.1
		C476.7,536.7,476.7,530.7,476.7,524.6z"/>
	<path class="st2" d="M556.4,542.9c0-6.1,0-12.2,0-18.4c12.3,0.1,24.7,0,37.1,0.1c0,6.1,0,12.1,0,18.2
		C581.1,542.9,568.7,542.8,556.4,542.9z"/>
	<path class="st2" d="M635.3,542.8c0-6.1,0-12.2,0-18.3c12.3,0,24.7,0,37.1,0c0,6.1,0,12.2,0,18.3
		C660,542.8,647.7,542.9,635.3,542.8z"/>
	<path class="st2" d="M260.1,557.7c0.1-2.2-1.7-6.8,1.7-6.9c156.7,0,313.4,0,470.1,0c1.1,0.1,2.2,0.2,3.3,0.5
		c-0.1,2.1-0.1,4.2-0.1,6.3C576.9,557.7,418.5,557.5,260.1,557.7z"/>
	<g>
		<path class="st2" d="M58.2,563.8c294.5,0,589,0,883.5,0c-16,48-48,89.2-85.9,122c-21,18.3-44.1,34-68.2,47.7
			c-10.6,6.4-22.2,11.1-32.9,17.5l-0.3,0.1c-6.1,1.6-11.5,4.7-17.3,7.1c-62.4,26.4-129.6,40.7-197.2,44.9
			c-79.7,4.7-160.4-4.5-236.3-29.5c-62.9-20.9-123-53-171.5-98.6C99.6,644,72.5,606.6,58.2,563.8z M334.4,582.3
			c-1.6,1.2-3.1,3-5.3,3.1c-4.3,0.6-8.7,0.7-13.1,0.7c-27.9,0-55.9,0-83.8,0c0,2.4-0.2,4.8-0.4,7.2c2.8,0.9,6,1.5,7.9,4.1
			c2.5,3.3,2.8,7.7,2.8,11.7c-0.1,34.3,0.1,68.6-0.1,102.9c0.3,6.2-4.1,11.7-10.3,12.5c0,2.4,0,4.9,0,7.3c21,0,41.9,0,62.9,0
			c9.6,0,19.5-0.9,28.5-4.4c7.9-3,14.1-9.1,19.1-15.7c6.3-8.4,7.6-19.5,6.5-29.7c-1.6-14.6-12.2-27.8-25.8-33.1
			c-15.9-5.7-33-4-49.6-4.2c0-15.8,0-31.6,0-47.4c9.8,0.1,19.6,0,29.4,0c6.2-0.2,13.1,0.5,18,4.9c5.2,5,8.4,11.7,11,18.3
			c2.5,0,5,0,7.5,0.1c0-12.7-0.1-25.4,0.1-38.1C337.9,582.3,336.1,582.3,334.4,582.3z M533.3,582.4c0.1,12.5,0.1,24.9,0,37.4
			c2.5,0,5,0.2,7.5-0.1c2.7-6.7,6.3-13.4,12.6-17.3c9.7-6.9,22.2-5.9,33.5-6c-0.2,37.2,0,74.4-0.1,111.6c-0.1,3.3,0.3,6.7-0.7,9.9
			c-1.5,4-6.1,4.9-9.5,6.7c0,2.4,0,4.8,0.1,7.2c17.3,0.1,34.6-0.1,51.9,0.1c0-2.5,0-5,0-7.5c-5.1-1.1-10.5-4.5-10.2-10.4
			c-0.2-39.2,0.1-78.4-0.2-117.7c8,0.2,16.3-0.6,24.1,1.5c10.2,3.5,18,12,22,21.9c2.5,0,5,0,7.5,0c0-12.5-0.1-25,0-37.4
			c-3.5,0.1-7.2-0.6-10.4,0.9c-5.4,2.3-11.5,1.9-17.3,2c-28.3,0-56.7,0-85,0c-4.9,0.1-9.9,0-14.6-1.9
			C540.9,581.8,537,582.4,533.3,582.4z M367.3,586.1c0,2.4,0,4.8-0.1,7.2c2.9,1.1,5.9,2.2,7.9,4.7c2.1,2.1,2.3,5.2,2.3,8
			c0,34.3,0,68.7,0,103c-0.1,3.3,0.3,6.9-1.5,9.8c-2,3-5.6,4.2-8.7,5.5c0,2.5,0,4.9,0,7.4c17.3,0,34.6,0,51.9,0c0-2.4,0-4.9,0-7.3
			c-2.9-1.2-6.3-1.9-8.3-4.5c-2.1-2.5-2.2-5.9-2.2-9c0-16.2,0-32.5,0-48.7c24.2,0,48.4-0.1,72.6,0c0,16.5,0,33,0,49.6
			c-0.1,2.8-0.2,5.9-2.2,8.1c-2,2.3-5.1,2.8-7.7,4.2c-1.1,2.3-0.1,5-0.2,7.5c17.2,0,34.5,0,51.7,0c0-2.5,0-5-0.1-7.5
			c-3.2-1.3-6.9-2.3-8.8-5.4c-1.8-3.4-1.3-7.3-1.3-10.9c0-34-0.1-68-0.1-102c-0.1-3.1,0.4-6.5,2.6-8.8c2-2.3,5.1-3,7.8-3.9
			c-0.1-2.4-0.1-4.8-0.1-7.2c-17.2,0-34.4,0-51.7,0c0,2.4,0,4.8-0.1,7.2c2.3,0.8,4.8,1.2,6.6,2.9c2.6,2.5,3.6,6.2,3.6,9.8
			c0,15.1,0,30.2,0,45.3c-24.2,0-48.4,0-72.6,0c0-14.1,0-28.2,0-42.3c0.1-3.1-0.2-6.4,1.2-9.3c1.8-3.6,5.6-5.5,9.4-6.4
			c0-2.4,0-4.8,0-7.2C401.9,586.1,384.6,586.1,367.3,586.1z M682.2,586.1c0,2.4,0,4.8-0.1,7.2c4,1.5,7.9,3.5,10.9,6.7
			c3.2,3.3,5.2,7.5,7.7,11.4c17.3,28.5,34.5,57.2,51.9,85.7c-2.4,6-5.5,11.9-10.1,16.4c-3.8,3.6-9.7,5.3-14.7,3.8
			c-5-3.1-3.2-10.2-6.9-14.2c-4.8-7.2-15.5-8-22.5-3.8c-7.5,5.8-9,18-3,25.4c3.8,4.6,9.4,7.5,15.2,8.5c11.3,1.5,23.8,0.6,33.3-6.4
			c8.4-6.8,14.6-16,19.4-25.6c5.3-11.3,9.8-22.9,14.8-34.3c7-16.6,14.1-33.2,21.1-49.8c2.8-6.2,4.8-12.8,9-18.2
			c2.1-2.7,5.3-4.1,8.2-5.6c0-2.4,0-4.8,0-7.2c-12.9,0-25.8,0-38.7,0c0,2.5,0,4.9-0.1,7.4c4.9,1.2,11.7,1.6,13.8,7
			c1.2,6.1-2.5,11.8-4.6,17.3c-5.9,14.1-11.9,28.1-17.8,42.2c-0.4,1.5-2.4,1.1-2.6-0.3c-9.4-15.6-18.8-31.1-28.3-46.7
			c-2.3-4-5.4-8.2-5.3-13c0.5-4.7,5.8-6.7,9.9-6.7c0-2.4,0-4.8,0-7.1C722.5,586.1,702.4,586.1,682.2,586.1z"/>
	</g>
	<path class="st2" d="M273.7,655.5c7.4,0.2,14.9-0.5,22.2,0.5c8.3,1.5,15.5,8.2,17.4,16.5c2.1,8.7,1.6,17.7,1.2,26.6
		c-0.7,6.8-2.4,14.9-9.1,18.3c-9.8,5.1-21.1,2.8-31.6,3.4C273.6,699,273.7,677.3,273.7,655.5z"/>
</g>
</svg>
