<svg width="11" height="14" viewBox="0 0 11 14" xmlns="http://www.w3.org/2000/svg">
<path d="M3.865 4.545C3.515 4.745 3.32 5.09 3.28 5.58C3.24 6.03 3.325 6.535 3.535 7.095C3.745 7.655 4.025 8.165 4.375 8.625C4.755 9.105 5.145 9.44 5.545 9.63C5.995 9.84 6.41 9.835 6.79 9.615L8.62 12.78C8.29 12.97 8.02 13.105 7.81 13.185C7.53 13.285 7.26 13.325 7 13.305C6.71 13.295 6.415 13.2 6.115 13.02C5.245 12.52 4.36 11.68 3.46 10.5C2.6 9.37 1.9 8.155 1.36 6.855C0.8 5.495 0.535 4.32 0.565 3.33C0.575 2.99 0.645 2.7 0.775 2.46C0.895 2.24 1.07 2.04 1.3 1.86C1.46 1.72 1.705 1.56 2.035 1.38L2.26 1.77C3.13 3.28 3.665 4.205 3.865 4.545ZM4.615 4.47C4.515 4.52 4.41 4.535 4.3 4.515C4.19 4.485 4.11 4.42 4.06 4.32L2.335 1.32C2.275 1.22 2.26 1.12 2.29 1.02C2.32 0.909999 2.385 0.825 2.485 0.765L3.385 0.239999C3.485 0.189999 3.59 0.18 3.7 0.21C3.81 0.23 3.895 0.289999 3.955 0.389999L5.68 3.375C5.73 3.475 5.74 3.58 5.71 3.69C5.69 3.8 5.63 3.885 5.53 3.945L4.615 4.47ZM9.34 12.63C9.24 12.69 9.135 12.705 9.025 12.675C8.915 12.645 8.83 12.58 8.77 12.48L7.045 9.495C6.995 9.395 6.98 9.29 7 9.18C7.03 9.07 7.095 8.985 7.195 8.925L8.11 8.415C8.21 8.355 8.31 8.34 8.41 8.37C8.52 8.4 8.605 8.465 8.665 8.565L10.39 11.55C10.45 11.65 10.465 11.755 10.435 11.865C10.405 11.975 10.34 12.055 10.24 12.105L9.34 12.63Z" />
</svg>
